<svg width="113" height="113" viewBox="0 0 113 113" fill="none" xmlns="http://www.w3.org/2000/svg">
<path d="M75.0336 73.6372C74.5407 73.6114 74.0578 73.4886 73.6125 73.2758C73.1671 73.063 72.7682 72.7644 72.4385 72.3971C72.1089 72.0298 71.8549 71.601 71.6913 71.1354C71.5277 70.6698 71.4576 70.1764 71.4851 69.6836L72.7119 46.9611L38.5252 77.6454C37.7851 78.3097 36.8113 78.6528 35.8182 78.5992C34.8251 78.5456 33.894 78.0997 33.2296 77.3595C32.5653 76.6194 32.2222 75.6456 32.2758 74.6525C32.3294 73.6594 32.7754 72.7282 33.5155 72.0639L67.7022 41.3796L44.9755 40.1482C43.9807 40.0945 43.0479 39.6478 42.3825 38.9063C41.717 38.1649 41.3733 37.1895 41.427 36.1946C41.4807 35.1998 41.9274 34.267 42.6689 33.6016C43.4103 32.9361 44.3857 32.5924 45.3806 32.6461L77.1541 34.3615C77.647 34.3873 78.1299 34.5101 78.5752 34.7229C79.0206 34.9357 79.4195 35.2343 79.7492 35.6016C80.0788 35.9689 80.3328 36.3977 80.4964 36.8633C80.66 37.329 80.7301 37.8223 80.7026 38.3151L78.9872 70.0886C78.9614 70.5815 78.8386 71.0645 78.6258 71.5098C78.413 71.9551 78.1144 72.354 77.7471 72.6837C77.3798 73.0134 76.9511 73.2673 76.4854 73.4309C76.0198 73.5945 75.5264 73.6646 75.0336 73.6372Z" fill="#FEFEFE"/>
</svg>
