<svg width="48" height="134" viewBox="0 0 48 134" fill="none" xmlns="http://www.w3.org/2000/svg">
<circle cx="45.9974" cy="132" r="1.66667" transform="rotate(180 45.9974 132)" fill="#FEFEFE"/>
<circle cx="45.9974" cy="117.333" r="1.66667" transform="rotate(180 45.9974 117.333)" fill="#FEFEFE"/>
<circle cx="45.9974" cy="102.667" r="1.66667" transform="rotate(180 45.9974 102.667)" fill="#FEFEFE"/>
<circle cx="45.9974" cy="88.0003" r="1.66667" transform="rotate(180 45.9974 88.0003)" fill="#FEFEFE"/>
<circle cx="45.9974" cy="73.3333" r="1.66667" transform="rotate(180 45.9974 73.3333)" fill="#FEFEFE"/>
<circle cx="45.9974" cy="45.0003" r="1.66667" transform="rotate(180 45.9974 45.0003)" fill="#FEFEFE"/>
<circle cx="45.9974" cy="16.0003" r="1.66667" transform="rotate(180 45.9974 16.0003)" fill="#FEFEFE"/>
<circle cx="45.9974" cy="59.0003" r="1.66667" transform="rotate(180 45.9974 59.0003)" fill="#FEFEFE"/>
<circle cx="45.9974" cy="30.6673" r="1.66667" transform="rotate(180 45.9974 30.6673)" fill="#FEFEFE"/>
<circle cx="45.9974" cy="1.66732" r="1.66667" transform="rotate(180 45.9974 1.66732)" fill="#FEFEFE"/>
<circle cx="31.3294" cy="132" r="1.66667" transform="rotate(180 31.3294 132)" fill="#FEFEFE"/>
<circle cx="31.3294" cy="117.333" r="1.66667" transform="rotate(180 31.3294 117.333)" fill="#FEFEFE"/>
<circle cx="31.3294" cy="102.667" r="1.66667" transform="rotate(180 31.3294 102.667)" fill="#FEFEFE"/>
<circle cx="31.3294" cy="88.0003" r="1.66667" transform="rotate(180 31.3294 88.0003)" fill="#FEFEFE"/>
<circle cx="31.3294" cy="73.3333" r="1.66667" transform="rotate(180 31.3294 73.3333)" fill="#FEFEFE"/>
<circle cx="31.3294" cy="45.0003" r="1.66667" transform="rotate(180 31.3294 45.0003)" fill="#FEFEFE"/>
<circle cx="31.3294" cy="16.0003" r="1.66667" transform="rotate(180 31.3294 16.0003)" fill="#FEFEFE"/>
<circle cx="31.3294" cy="59.0003" r="1.66667" transform="rotate(180 31.3294 59.0003)" fill="#FEFEFE"/>
<circle cx="31.3294" cy="30.6673" r="1.66667" transform="rotate(180 31.3294 30.6673)" fill="#FEFEFE"/>
<circle cx="31.3294" cy="1.66732" r="1.66667" transform="rotate(180 31.3294 1.66732)" fill="#FEFEFE"/>
<circle cx="16.6654" cy="132" r="1.66667" transform="rotate(180 16.6654 132)" fill="#FEFEFE"/>
<circle cx="16.6654" cy="117.333" r="1.66667" transform="rotate(180 16.6654 117.333)" fill="#FEFEFE"/>
<circle cx="16.6654" cy="102.667" r="1.66667" transform="rotate(180 16.6654 102.667)" fill="#FEFEFE"/>
<circle cx="16.6654" cy="88.0003" r="1.66667" transform="rotate(180 16.6654 88.0003)" fill="#FEFEFE"/>
<circle cx="16.6654" cy="73.3333" r="1.66667" transform="rotate(180 16.6654 73.3333)" fill="#FEFEFE"/>
<circle cx="16.6654" cy="45.0003" r="1.66667" transform="rotate(180 16.6654 45.0003)" fill="#FEFEFE"/>
<circle cx="16.6654" cy="16.0003" r="1.66667" transform="rotate(180 16.6654 16.0003)" fill="#FEFEFE"/>
<circle cx="16.6654" cy="59.0003" r="1.66667" transform="rotate(180 16.6654 59.0003)" fill="#FEFEFE"/>
<circle cx="16.6654" cy="30.6673" r="1.66667" transform="rotate(180 16.6654 30.6673)" fill="#FEFEFE"/>
<circle cx="16.6654" cy="1.66732" r="1.66667" transform="rotate(180 16.6654 1.66732)" fill="#FEFEFE"/>
<circle cx="1.9974" cy="132" r="1.66667" transform="rotate(180 1.9974 132)" fill="#FEFEFE"/>
<circle cx="1.9974" cy="117.333" r="1.66667" transform="rotate(180 1.9974 117.333)" fill="#FEFEFE"/>
<circle cx="1.9974" cy="102.667" r="1.66667" transform="rotate(180 1.9974 102.667)" fill="#FEFEFE"/>
<circle cx="1.9974" cy="88.0003" r="1.66667" transform="rotate(180 1.9974 88.0003)" fill="#FEFEFE"/>
<circle cx="1.9974" cy="73.3333" r="1.66667" transform="rotate(180 1.9974 73.3333)" fill="#FEFEFE"/>
<circle cx="1.9974" cy="45.0003" r="1.66667" transform="rotate(180 1.9974 45.0003)" fill="#FEFEFE"/>
<circle cx="1.9974" cy="16.0003" r="1.66667" transform="rotate(180 1.9974 16.0003)" fill="#FEFEFE"/>
<circle cx="1.9974" cy="59.0003" r="1.66667" transform="rotate(180 1.9974 59.0003)" fill="#FEFEFE"/>
<circle cx="1.9974" cy="30.6673" r="1.66667" transform="rotate(180 1.9974 30.6673)" fill="#FEFEFE"/>
<circle cx="1.9974" cy="1.66732" r="1.66667" transform="rotate(180 1.9974 1.66732)" fill="#FEFEFE"/>
</svg>
