<svg width="18" height="18" viewBox="0 0 18 18" fill="none" xmlns="http://www.w3.org/2000/svg">
<path d="M8.91688 12.4993C10.6918 12.4993 12.1306 11.091 12.1306 9.35366C12.1306 7.61637 10.6918 6.20801 8.91688 6.20801C7.14197 6.20801 5.70312 7.61637 5.70312 9.35366C5.70312 11.091 7.14197 12.4993 8.91688 12.4993Z" fill="#FEFEFE"/>
<path d="M12.4078 0.947266H5.37075C2.57257 0.947266 0.300781 3.17092 0.300781 5.90981V12.7435C0.300781 15.5366 2.57257 17.7603 5.37075 17.7603H12.3524C15.2059 17.7603 17.4777 15.5366 17.4777 12.7977V5.90981C17.4777 3.17092 15.2059 0.947266 12.4078 0.947266ZM8.91696 13.4757C6.56206 13.4757 4.70584 11.6045 4.70584 9.35377C4.70584 7.10299 6.58976 5.23187 8.91696 5.23187C11.2165 5.23187 13.1004 7.10299 13.1004 9.35377C13.1004 11.6045 11.2442 13.4757 8.91696 13.4757ZM14.735 5.61152C14.4579 5.90981 14.0423 6.07252 13.5714 6.07252C13.1558 6.07252 12.7402 5.90981 12.4078 5.61152C12.103 5.31322 11.9368 4.93357 11.9368 4.47257C11.9368 4.01157 12.103 3.65904 12.4078 3.33363C12.7125 3.00821 13.1004 2.84551 13.5714 2.84551C13.9869 2.84551 14.4302 3.00821 14.735 3.30651C15.012 3.65904 15.2059 4.06581 15.2059 4.49969C15.1782 4.93357 15.012 5.31322 14.735 5.61152Z" fill="#FEFEFE"/>
<path d="M13.5985 3.82129C13.2383 3.82129 12.9336 4.11958 12.9336 4.47211C12.9336 4.82465 13.2383 5.12294 13.5985 5.12294C13.9587 5.12294 14.2634 4.82465 14.2634 4.47211C14.2634 4.11958 13.9864 3.82129 13.5985 3.82129Z" fill="#FEFEFE"/>
</svg>
