<svg width="18" height="18" viewBox="0 0 18 18" fill="none" xmlns="http://www.w3.org/2000/svg">
<path d="M16.7821 0.947266H1.84847C1.14272 0.947266 0.578125 1.49735 0.578125 2.18496V16.7622C0.578125 17.4223 1.14272 17.9999 1.84847 17.9999H16.7257C17.4314 17.9999 17.996 17.4498 17.996 16.7622V2.15745C18.0525 1.49735 17.4879 0.947266 16.7821 0.947266ZM5.7442 15.442H3.17528V7.32825H5.7442V15.442ZM4.44563 6.20058C3.59873 6.20058 2.94944 5.54047 2.94944 4.74285C2.94944 3.94523 3.62696 3.28513 4.44563 3.28513C5.26429 3.28513 5.94181 3.94523 5.94181 4.74285C5.94181 5.54047 5.32075 6.20058 4.44563 6.20058ZM15.4835 15.442H12.9146V11.5089C12.9146 10.5738 12.8864 9.33606 11.5596 9.33606C10.2045 9.33606 10.0069 10.3812 10.0069 11.4264V15.442H7.438V7.32825H9.95046V8.45592H9.9787C10.3457 7.79582 11.1644 7.13572 12.4347 7.13572C15.0601 7.13572 15.54 8.78598 15.54 11.0413V15.442H15.4835Z" fill="#FEFEFE"/>
</svg>
