<svg width="19" height="15" viewBox="0 0 19 15" fill="none" xmlns="http://www.w3.org/2000/svg">
<path d="M16.2602 3.1786L17.328 1.93274C17.6371 1.59532 17.7214 1.33577 17.7495 1.20599C16.9065 1.67319 16.1197 1.82892 15.614 1.82892H15.4173L15.3049 1.7251C14.6305 1.18004 13.7875 0.894531 12.8883 0.894531C10.9213 0.894531 9.37584 2.39994 9.37584 4.13894C9.37584 4.24276 9.37583 4.3985 9.40393 4.50232L9.48823 5.02142L8.89814 4.99547C5.30139 4.89165 2.35092 2.03656 1.87323 1.54341C1.08644 2.84118 1.53603 4.08703 2.01373 4.86569L2.96912 6.31919L1.45174 5.54053C1.47983 6.63065 1.92943 7.48718 2.80052 8.1101L3.55921 8.62921L2.80052 8.91472C3.27821 10.2384 4.346 10.7835 5.13279 10.9911L6.17248 11.2507L5.18899 11.8736C3.61541 12.9118 1.64843 12.834 0.777344 12.7561C2.54762 13.8981 4.65509 14.1577 6.11628 14.1577C7.21216 14.1577 8.02705 14.0539 8.22375 13.976C16.0916 12.263 16.4569 5.77413 16.4569 4.47636V4.29468L16.6255 4.19085C17.5809 3.36028 17.9743 2.91904 18.1991 2.65949C18.1148 2.68545 18.0024 2.73736 17.89 2.76331L16.2602 3.1786Z" fill="#FEFEFE"/>
</svg>
